# xmcd
#
# Track frame offsets:
#	150
#	21722
#	40300
#	62762
#	85787
#	106712
#	123437
#	141317
#	155687
#
# Disc length: 2297 seconds
#
# Revision: 0
# Processed by: cddbd v1.5.2PL0 Copyright (c) Steve Scherf et al.
# Submitted via: audiograbber 1.83.01
#
DISCID=7a08f709
DTITLE=Billy Idol - Rebel Yell
DYEAR=1984
DGENRE=
TTITLE0=e
TTITLE1=q
TTITLE2=a
TTITLE3=w
TTITLE4=r
TTITLE5=t
TTITLE6=h
TTITLE7=yx
TTITLE8=u
EXTD=
EXTT0=
EXTT1=
EXTT2=
EXTT3=
EXTT4=
EXTT5=
EXTT6=
EXTT7=
EXTT8=
PLAYORDER=
